<?xml version="1.0" encoding="UTF-8"?>
<svg xmlns="http://www.w3.org/2000/svg" height="798" width="798" class="pyqrcode"><path transform="scale(6)" stroke="#000" class="pyqrline" d="M4 4.5h7m2 0h1m7 0h4m5 0h1m1 0h3m2 0h3m1 0h1m1 0h1m3 0h2m3 0h1m1 0h1m1 0h3m5 0h2m1 0h1m1 0h2m5 0h1m1 0h1m1 0h3m2 0h3m1 0h1m1 0h1m3 0h2m3 0h1m1 0h1m1 0h3m2 0h3m1 0h1m1 0h1m1 0h1m1 0h2m1 0h7m-125 1h1m5 0h1m1 0h4m3 0h2m2 0h2m1 0h1m1 0h3m3 0h1m3 0h1m1 0h1m4 0h1m3 0h1m1 0h5m2 0h2m1 0h1m2 0h1m5 0h1m2 0h1m1 0h5m2 0h2m2 0h1m1 0h1m2 0h1m1 0h1m3 0h1m2 0h4m2 0h2m2 0h1m1 0h1m4 0h2m3 0h1m5 0h1m-125 1h1m1 0h3m1 0h1m3 0h1m2 0h1m2 0h1m2 0h1m1 0h1m5 0h1m1 0h5m1 0h1m1 0h1m1 0h1m2 0h3m3 0h1m3 0h3m4 0h1m1 0h1m1 0h1m1 0h4m3 0h1m3 0h3m2 0h1m1 0h1m1 0h1m2 0h1m1 0h3m2 0h1m4 0h3m2 0h1m1 0h1m1 0h1m1 0h1m1 0h1m1 0h1m2 0h1m1 0h3m1 0h1m-125 1h1m1 0h3m1 0h1m1 0h3m1 0h2m2 0h1m1 0h3m3 0h3m2 0h1m2 0h1m1 0h1m2 0h2m2 0h1m2 0h2m1 0h6m1 0h2m2 0h1m6 0h1m2 0h2m1 0h6m1 0h2m2 0h1m4 0h3m2 0h1m1 0h1m4 0h2m1 0h2m2 0h1m11 0h1m1 0h3m1 0h1m-125 1h1m1 0h3m1 0h1m2 0h1m5 0h4m1 0h2m1 0h2m1 0h2m3 0h6m1 0h2m3 0h2m3 0h1m1 0h1m1 0h3m2 0h8m2 0h2m3 0h1m1 0h1m1 0h3m2 0h3m1 0h1m2 0h8m1 0h1m2 0h3m2 0h3m1 0h1m1 0h1m1 0h3m2 0h1m1 0h3m1 0h1m-125 1h1m5 0h1m1 0h4m8 0h4m1 0h3m1 0h1m1 0h2m3 0h3m2 0h1m3 0h1m1 0h5m2 0h1m3 0h3m3 0h2m3 0h1m1 0h5m2 0h2m2 0h1m1 0h1m3 0h1m3 0h1m1 0h3m2 0h1m2 0h2m2 0h1m1 0h1m4 0h3m2 0h1m5 0h1m-125 1h7m1 0h1m1 0h1m1 0h1m1 0h1m1 0h1m1 0h1m1 0h1m1 0h1m1 0h1m1 0h1m1 0h1m1 0h1m1 0h1m1 0h1m1 0h1m1 0h1m1 0h1m1 0h1m1 0h1m1 0h1m1 0h1m1 0h1m1 0h1m1 0h1m1 0h1m1 0h1m1 0h1m1 0h1m1 0h1m1 0h1m1 0h1m1 0h1m1 0h1m1 0h1m1 0h1m1 0h1m1 0h1m1 0h1m1 0h1m1 0h1m1 0h1m1 0h1m1 0h1m1 0h1m1 0h1m1 0h1m1 0h1m1 0h1m1 0h1m1 0h1m1 0h1m1 0h1m1 0h1m1 0h1m1 0h1m1 0h7m-115 1h1m2 0h1m2 0h3m1 0h2m1 0h2m3 0h1m1 0h1m1 0h1m3 0h1m2 0h1m2 0h3m3 0h1m3 0h6m1 0h2m3 0h1m1 0h3m3 0h1m3 0h3m2 0h1m1 0h1m1 0h1m2 0h1m3 0h2m2 0h2m2 0h3m2 0h1m1 0h1m1 0h1m1 0h1m2 0h1m-115 1h5m1 0h5m1 0h2m1 0h5m1 0h8m1 0h1m1 0h5m4 0h1m2 0h2m1 0h6m1 0h1m1 0h1m1 0h1m1 0h5m1 0h1m1 0h1m1 0h7m1 0h2m2 0h1m4 0h6m1 0h7m1 0h2m2 0h1m6 0h1m1 0h3m1 0h1m1 0h1m1 0h1m-123 1h1m1 0h3m2 0h2m5 0h1m3 0h2m5 0h1m1 0h8m1 0h1m1 0h1m3 0h2m3 0h1m1 0h1m1 0h7m1 0h2m1 0h1m1 0h6m1 0h1m1 0h1m1 0h3m2 0h3m1 0h1m1 0h1m3 0h4m1 0h1m1 0h1m1 0h3m2 0h3m1 0h1m1 0h1m4 0h2m2 0h1m-121 1h1m1 0h6m1 0h3m4 0h2m1 0h2m1 0h2m1 0h2m3 0h1m1 0h1m1 0h1m1 0h1m4 0h1m3 0h1m1 0h5m2 0h2m2 0h3m5 0h1m3 0h6m2 0h2m2 0h3m4 0h1m4 0h6m2 0h2m2 0h1m1 0h1m4 0h1m1 0h2m2 0h1m1 0h1m1 0h1m-124 1h1m1 0h1m7 0h4m1 0h2m2 0h1m1 0h1m1 0h2m2 0h1m1 0h5m1 0h1m1 0h1m1 0h1m2 0h3m3 0h1m3 0h3m2 0h1m2 0h2m1 0h1m1 0h5m2 0h1m3 0h3m2 0h1m2 0h2m1 0h1m2 0h4m2 0h1m3 0h3m2 0h1m1 0h1m1 0h1m1 0h1m2 0h1m2 0h1m-117 1h2m1 0h1m1 0h5m1 0h2m1 0h6m2 0h4m3 0h1m3 0h1m2 0h2m3 0h1m1 0h2m1 0h6m1 0h2m2 0h3m5 0h1m1 0h2m1 0h6m1 0h2m2 0h3m2 0h1m1 0h1m2 0h1m1 0h3m2 0h3m1 0h1m2 0h1m6 0h1m1 0h2m2 0h1m1 0h1m1 0h1m-123 1h2m1 0h2m1 0h1m1 0h1m1 0h2m7 0h2m4 0h2m1 0h7m2 0h2m1 0h4m3 0h1m1 0h1m1 0h3m2 0h2m1 0h2m1 0h1m1 0h4m3 0h1m1 0h1m1 0h3m2 0h2m1 0h2m2 0h1m2 0h4m1 0h2m2 0h1m4 0h3m1 0h1m1 0h1m4 0h1m1 0h3m-120 1h1m1 0h1m2 0h1m2 0h3m5 0h1m1 0h3m1 0h1m1 0h2m3 0h1m1 0h1m1 0h1m1 0h3m3 0h1m2 0h1m1 0h4m3 0h1m3 0h3m5 0h1m2 0h1m1 0h5m2 0h2m2 0h1m1 0h1m2 0h3m4 0h3m2 0h1m1 0h1m1 0h1m2 0h1m1 0h1m2 0h1m1 0h1m1 0h4m1 0h2m1 0h1m-121 1h2m5 0h2m1 0h1m2 0h1m4 0h1m1 0h2m2 0h1m1 0h5m1 0h1m3 0h1m1 0h4m3 0h1m2 0h1m1 0h5m2 0h2m1 0h1m1 0h4m3 0h1m3 0h3m2 0h1m1 0h1m1 0h1m2 0h1m1 0h4m2 0h2m2 0h1m1 0h1m2 0h1m1 0h1m1 0h1m2 0h1m1 0h2m2 0h3m-120 1h2m2 0h2m1 0h4m1 0h1m1 0h4m4 0h4m3 0h1m3 0h1m2 0h2m2 0h1m2 0h2m1 0h4m3 0h1m1 0h1m1 0h3m5 0h1m1 0h1m1 0h3m2 0h2m1 0h2m2 0h1m4 0h1m2 0h1m1 0h1m1 0h3m2 0h2m1 0h2m2 0h1m4 0h3m3 0h1m2 0h2m1 0h1m-121 1h3m1 0h3m2 0h1m2 0h1m4 0h2m4 0h2m1 0h7m2 0h2m3 0h2m3 0h1m1 0h2m1 0h6m1 0h2m1 0h1m1 0h6m1 0h2m2 0h3m2 0h3m1 0h1m2 0h7m1 0h2m2 0h3m2 0h3m1 0h1m2 0h1m2 0h1m1 0h1m1 0h2m-121 1h3m1 0h3m1 0h4m4 0h2m1 0h2m1 0h2m1 0h2m3 0h1m1 0h1m1 0h1m1 0h3m2 0h1m3 0h1m1 0h5m2 0h1m3 0h3m5 0h1m3 0h3m2 0h1m2 0h1m3 0h3m2 0h2m1 0h1m3 0h3m2 0h1m2 0h2m2 0h1m1 0h1m4 0h1m3 0h1m2 0h2m1 0h1m-124 1h1m2 0h3m4 0h1m1 0h2m1 0h2m5 0h3m2 0h1m1 0h5m1 0h1m3 0h1m2 0h3m3 0h1m3 0h6m2 0h2m1 0h1m1 0h5m2 0h2m2 0h6m2 0h2m2 0h6m2 0h2m2 0h3m2 0h1m1 0h1m1 0h1m1 0h1m2 0h1m2 0h1m1 0h2m-121 1h4m1 0h2m1 0h1m1 0h4m1 0h4m4 0h4m3 0h1m3 0h1m2 0h2m3 0h1m1 0h1m1 0h7m1 0h1m1 0h1m1 0h5m3 0h1m1 0h1m1 0h7m1 0h1m1 0h1m1 0h3m2 0h1m1 0h1m2 0h1m1 0h3m2 0h3m1 0h1m1 0h1m7 0h1m1 0h2m1 0h1m1 0h2m1 0h1m-124 1h1m3 0h1m2 0h2m1 0h1m1 0h1m7 0h2m4 0h2m1 0h7m2 0h2m1 0h6m1 0h1m1 0h1m1 0h7m1 0h1m1 0h2m1 0h6m1 0h1m1 0h1m1 0h7m1 0h2m2 0h1m2 0h4m1 0h2m2 0h1m6 0h1m1 0h1m1 0h1m4 0h1m1 0h3m-121 1h1m1 0h1m1 0h1m1 0h1m1 0h1m1 0h2m5 0h1m1 0h2m1 0h2m1 0h2m3 0h1m1 0h1m1 0h1m1 0h3m3 0h1m3 0h1m1 0h3m3 0h1m3 0h5m3 0h1m3 0h6m2 0h2m2 0h3m2 0h3m4 0h3m2 0h1m1 0h1m1 0h1m1 0h1m1 0h2m2 0h1m1 0h1m1 0h4m1 0h2m1 0h1m-121 1h1m1 0h1m5 0h1m1 0h1m1 0h1m6 0h3m2 0h1m1 0h5m1 0h1m3 0h1m1 0h5m1 0h1m3 0h1m1 0h5m2 0h1m2 0h1m1 0h5m2 0h1m3 0h3m2 0h1m2 0h2m2 0h1m1 0h4m2 0h2m2 0h1m1 0h1m5 0h2m2 0h1m1 0h2m2 0h3m-121 1h4m1 0h2m1 0h4m1 0h1m1 0h4m4 0h4m3 0h1m2 0h1m3 0h2m3 0h1m1 0h2m3 0h2m3 0h1m1 0h1m1 0h3m5 0h1m1 0h1m1 0h3m2 0h3m1 0h1m2 0h3m2 0h1m2 0h1m1 0h1m1 0h3m2 0h3m1 0h1m2 0h3m2 0h3m3 0h1m2 0h2m1 0h1m-124 1h1m3 0h1m2 0h2m3 0h1m3 0h1m3 0h2m4 0h2m1 0h4m2 0h1m2 0h2m1 0h4m2 0h1m2 0h2m1 0h6m1 0h2m1 0h1m1 0h6m1 0h2m2 0h1m4 0h2m1 0h2m2 0h7m1 0h2m2 0h1m4 0h2m1 0h2m2 0h1m2 0h1m2 0h5m1 0h1m-125 1h1m1 0h1m1 0h3m1 0h1m2 0h1m5 0h1m1 0h2m1 0h2m1 0h2m3 0h1m1 0h2m1 0h4m3 0h1m2 0h1m1 0h4m3 0h1m3 0h3m5 0h1m3 0h3m4 0h1m4 0h3m2 0h2m1 0h1m3 0h3m2 0h1m1 0h1m1 0h1m2 0h1m1 0h1m2 0h1m1 0h1m3 0h2m1 0h1m1 0h2m-121 1h1m1 0h1m3 0h1m2 0h2m1 0h1m6 0h3m2 0h1m1 0h4m3 0h1m2 0h1m1 0h4m3 0h1m2 0h1m1 0h5m2 0h2m1 0h1m1 0h5m2 0h2m1 0h1m2 0h4m2 0h2m2 0h6m2 0h2m2 0h1m1 0h1m2 0h1m1 0h1m1 0h1m2 0h1m1 0h2m2 0h6m-124 1h4m1 0h2m1 0h1m1 0h4m1 0h4m4 0h4m3 0h1m3 0h5m3 0h1m1 0h1m1 0h3m5 0h1m1 0h1m1 0h5m3 0h1m1 0h1m1 0h3m5 0h1m1 0h1m1 0h3m2 0h1m2 0h1m1 0h1m1 0h3m2 0h3m1 0h1m1 0h1m3 0h5m3 0h1m2 0h1m2 0h2m-125 1h1m3 0h1m2 0h2m1 0h1m1 0h3m1 0h1m3 0h2m4 0h2m1 0h6m1 0h1m1 0h2m1 0h6m1 0h2m1 0h1m1 0h6m1 0h1m1 0h2m1 0h6m1 0h2m1 0h1m1 0h6m1 0h2m2 0h7m1 0h2m2 0h1m6 0h1m2 0h1m1 0h1m2 0h1m2 0h3m-121 1h1m1 0h1m1 0h3m1 0h1m1 0h2m1 0h1m3 0h1m1 0h2m1 0h2m1 0h2m3 0h1m1 0h1m1 0h1m1 0h3m3 0h2m2 0h1m1 0h1m5 0h1m3 0h6m2 0h1m3 0h3m2 0h1m2 0h1m3 0h3m2 0h2m1 0h1m3 0h3m2 0h1m1 0h1m3 0h1m1 0h5m1 0h1m3 0h2m1 0h2m1 0h1m-121 1h1m1 0h1m5 0h2m2 0h1m6 0h3m2 0h1m1 0h5m1 0h1m3 0h1m1 0h2m2 0h1m1 0h1m1 0h1m1 0h1m1 0h5m2 0h1m3 0h6m2 0h2m2 0h6m2 0h2m2 0h6m2 0h2m2 0h1m1 0h3m3 0h1m3 0h1m1 0h2m2 0h3m-121 1h14m1 0h4m4 0h4m3 0h1m1 0h7m3 0h2m2 0h1m2 0h2m3 0h1m1 0h1m1 0h7m1 0h1m1 0h1m1 0h3m2 0h3m2 0h2m1 0h2m2 0h6m1 0h3m2 0h3m2 0h2m1 0h2m2 0h3m2 0h6m1 0h1m-124 1h1m3 0h1m3 0h1m2 0h2m3 0h1m3 0h2m4 0h2m1 0h2m1 0h1m3 0h1m1 0h2m1 0h2m2 0h3m2 0h2m1 0h6m1 0h1m3 0h7m1 0h2m2 0h1m2 0h2m3 0h2m1 0h2m3 0h3m1 0h2m2 0h1m2 0h2m3 0h2m2 0h1m3 0h1m3 0h4m-124 1h1m1 0h1m1 0h1m1 0h1m1 0h1m2 0h1m1 0h1m3 0h1m1 0h2m1 0h1m1 0h3m3 0h3m1 0h1m1 0h3m3 0h1m3 0h1m1 0h3m3 0h1m3 0h1m1 0h1m1 0h1m1 0h1m1 0h1m3 0h1m1 0h1m4 0h1m3 0h1m1 0h2m3 0h1m1 0h1m1 0h1m1 0h3m2 0h1m1 0h1m1 0h1m1 0h1m1 0h2m2 0h1m1 0h1m1 0h2m1 0h1m1 0h1m1 0h1m1 0h1m-122 1h2m3 0h2m1 0h2m2 0h1m6 0h3m2 0h1m1 0h4m3 0h1m2 0h1m1 0h5m1 0h1m3 0h1m1 0h5m2 0h1m3 0h6m1 0h1m1 0h1m1 0h1m2 0h3m3 0h2m2 0h1m3 0h2m2 0h2m2 0h1m1 0h1m5 0h2m2 0h1m1 0h1m1 0h1m3 0h5m-125 1h10m1 0h3m1 0h2m1 0h1m4 0h4m3 0h1m1 0h7m3 0h1m1 0h1m1 0h1m6 0h1m2 0h1m1 0h7m1 0h1m1 0h1m1 0h1m6 0h1m2 0h1m1 0h3m2 0h6m1 0h3m2 0h3m1 0h1m1 0h1m1 0h6m1 0h1m1 0h5m3 0h1m-125 1h1m4 0h1m2 0h1m1 0h5m1 0h1m3 0h2m1 0h1m2 0h2m1 0h5m4 0h2m1 0h7m1 0h1m1 0h1m3 0h4m1 0h12m1 0h1m1 0h1m3 0h4m1 0h2m2 0h1m1 0h1m1 0h3m1 0h2m2 0h1m7 0h1m1 0h1m1 0h3m1 0h2m2 0h1m-121 1h1m1 0h1m1 0h1m1 0h6m1 0h1m3 0h1m1 0h2m1 0h2m1 0h2m3 0h2m3 0h1m1 0h3m2 0h2m2 0h1m1 0h1m4 0h1m4 0h1m3 0h1m1 0h1m1 0h1m3 0h3m4 0h1m4 0h3m4 0h4m1 0h3m4 0h1m3 0h1m1 0h5m2 0h1m3 0h3m1 0h2m-121 1h3m2 0h1m1 0h3m2 0h1m2 0h1m3 0h3m2 0h1m1 0h2m1 0h2m1 0h2m3 0h3m2 0h1m1 0h1m1 0h1m1 0h1m2 0h4m2 0h3m2 0h5m2 0h2m1 0h1m2 0h4m2 0h2m1 0h2m1 0h2m1 0h1m2 0h2m1 0h1m2 0h3m3 0h1m3 0h3m1 0h3m1 0h1m-121 1h4m1 0h2m3 0h4m1 0h4m11 0h2m4 0h5m1 0h2m2 0h1m7 0h1m1 0h1m1 0h1m4 0h1m2 0h1m1 0h1m1 0h3m4 0h1m2 0h2m1 0h4m2 0h2m3 0h3m4 0h1m2 0h2m1 0h7m4 0h6m-124 1h1m4 0h1m2 0h5m3 0h2m2 0h2m3 0h1m1 0h1m1 0h5m1 0h2m1 0h1m1 0h3m2 0h3m1 0h1m1 0h1m1 0h6m1 0h3m2 0h6m1 0h2m1 0h1m3 0h2m3 0h1m1 0h1m1 0h1m1 0h2m1 0h2m1 0h2m1 0h1m3 0h2m3 0h1m1 0h1m1 0h1m3 0h2m2 0h4m-124 1h1m1 0h1m1 0h1m1 0h6m1 0h1m3 0h2m1 0h1m1 0h1m7 0h2m4 0h3m3 0h2m2 0h1m1 0h1m5 0h1m3 0h1m3 0h2m2 0h2m2 0h1m1 0h1m4 0h1m3 0h1m1 0h4m2 0h2m3 0h3m2 0h1m1 0h1m3 0h1m1 0h5m1 0h1m4 0h3m1 0h1m1 0h1m-122 1h3m2 0h1m1 0h3m2 0h1m2 0h1m3 0h4m1 0h1m1 0h2m1 0h2m1 0h2m2 0h1m1 0h2m2 0h1m1 0h1m1 0h1m1 0h1m1 0h5m2 0h4m1 0h2m2 0h1m1 0h1m1 0h1m1 0h1m2 0h3m3 0h1m2 0h2m1 0h1m2 0h1m2 0h2m2 0h1m1 0h3m3 0h1m3 0h1m1 0h1m1 0h3m1 0h5m-125 1h4m1 0h2m3 0h3m1 0h3m1 0h2m2 0h5m3 0h2m4 0h3m3 0h2m2 0h1m6 0h1m2 0h2m6 0h1m1 0h2m2 0h1m6 0h1m2 0h2m1 0h2m4 0h5m1 0h2m2 0h3m2 0h2m1 0h6m1 0h1m3 0h3m3 0h1m-125 1h1m4 0h1m2 0h7m1 0h1m2 0h1m1 0h1m1 0h1m2 0h2m1 0h5m1 0h2m1 0h2m1 0h2m2 0h3m1 0h1m1 0h1m3 0h2m3 0h7m2 0h3m1 0h1m1 0h1m3 0h2m3 0h2m2 0h1m1 0h1m1 0h1m3 0h2m2 0h1m2 0h2m3 0h1m1 0h1m1 0h3m1 0h2m2 0h4m-124 1h1m1 0h3m1 0h6m2 0h1m2 0h1m4 0h2m1 0h2m3 0h3m3 0h4m2 0h2m2 0h1m1 0h1m4 0h1m3 0h1m4 0h1m1 0h1m1 0h1m3 0h1m1 0h1m4 0h1m3 0h1m1 0h2m4 0h5m2 0h1m4 0h1m3 0h1m1 0h5m2 0h1m3 0h3m1 0h1m1 0h1m-121 1h2m2 0h1m1 0h3m2 0h1m2 0h1m1 0h5m2 0h1m1 0h2m2 0h1m1 0h2m3 0h3m2 0h1m1 0h1m1 0h1m1 0h1m2 0h3m3 0h4m1 0h5m1 0h1m1 0h1m1 0h1m2 0h3m3 0h2m1 0h2m1 0h2m3 0h1m1 0h1m1 0h1m2 0h3m3 0h1m3 0h3m1 0h3m1 0h5m-122 1h1m1 0h2m3 0h13m6 0h1m2 0h1m3 0h5m1 0h2m2 0h1m6 0h1m2 0h1m1 0h1m5 0h2m2 0h1m1 0h1m6 0h1m2 0h2m1 0h4m2 0h2m3 0h1m6 0h1m2 0h2m1 0h6m1 0h1m3 0h3m3 0h1m-125 1h1m4 0h1m3 0h6m1 0h2m1 0h3m3 0h1m1 0h1m5 0h1m1 0h2m1 0h1m1 0h3m2 0h3m1 0h1m1 0h1m3 0h4m1 0h5m2 0h5m1 0h1m1 0h1m3 0h2m3 0h1m1 0h1m1 0h1m1 0h2m1 0h3m1 0h1m1 0h1m3 0h2m3 0h1m1 0h1m1 0h3m1 0h2m2 0h4m-120 1h1m1 0h1m2 0h3m5 0h2m1 0h3m4 0h1m1 0h1m6 0h4m2 0h2m2 0h1m1 0h1m4 0h1m4 0h1m1 0h1m1 0h1m1 0h2m1 0h1m2 0h1m1 0h1m4 0h1m3 0h1m1 0h4m2 0h2m3 0h3m4 0h1m3 0h1m1 0h5m2 0h1m3 0h2m2 0h1m1 0h1m-124 1h2m1 0h2m2 0h1m1 0h5m3 0h3m1 0h4m2 0h1m1 0h1m1 0h2m1 0h2m3 0h3m2 0h1m1 0h1m1 0h1m1 0h1m2 0h4m3 0h3m2 0h1m2 0h1m1 0h1m1 0h1m1 0h1m2 0h3m3 0h1m2 0h2m1 0h2m1 0h1m2 0h2m1 0h1m2 0h3m3 0h1m3 0h3m1 0h3m1 0h5m-125 1h2m1 0h1m1 0h2m1 0h1m1 0h5m4 0h2m1 0h3m2 0h2m1 0h2m4 0h1m2 0h2m1 0h2m2 0h1m6 0h1m2 0h2m1 0h2m3 0h1m1 0h2m2 0h1m6 0h1m2 0h2m1 0h4m2 0h2m2 0h1m1 0h4m2 0h1m2 0h2m1 0h6m1 0h1m3 0h2m4 0h1m-125 1h2m3 0h1m1 0h1m1 0h6m1 0h2m2 0h2m1 0h1m1 0h1m2 0h6m1 0h3m2 0h3m2 0h3m1 0h1m1 0h1m3 0h2m2 0h1m1 0h6m2 0h3m1 0h1m1 0h1m3 0h2m3 0h1m1 0h1m1 0h1m1 0h2m4 0h1m1 0h2m3 0h2m3 0h1m1 0h1m1 0h3m1 0h2m1 0h5m-122 1h1m1 0h1m1 0h2m1 0h3m5 0h2m3 0h3m5 0h3m3 0h1m2 0h1m2 0h2m2 0h1m1 0h1m4 0h1m1 0h1m1 0h1m1 0h1m2 0h1m1 0h1m1 0h2m2 0h1m1 0h1m4 0h1m3 0h1m1 0h4m1 0h3m2 0h1m2 0h3m2 0h1m3 0h1m1 0h5m2 0h1m3 0h3m1 0h1m1 0h1m-125 1h1m2 0h3m2 0h1m1 0h6m1 0h2m1 0h3m1 0h2m1 0h1m1 0h2m2 0h1m1 0h3m2 0h3m2 0h1m1 0h1m1 0h1m1 0h1m2 0h1m5 0h4m1 0h2m2 0h1m1 0h1m1 0h1m1 0h1m2 0h3m3 0h1m2 0h1m2 0h2m3 0h1m3 0h1m2 0h3m3 0h1m3 0h3m1 0h3m1 0h5m-121 1h3m3 0h6m1 0h6m1 0h3m2 0h1m2 0h1m3 0h5m1 0h2m2 0h1m6 0h1m1 0h1m1 0h1m6 0h2m1 0h1m1 0h1m7 0h1m2 0h2m1 0h8m2 0h1m7 0h1m2 0h2m1 0h6m1 0h1m3 0h3m3 0h1m-125 1h1m3 0h2m2 0h14m4 0h2m5 0h1m1 0h2m1 0h1m1 0h3m2 0h3m1 0h1m1 0h1m8 0h5m6 0h1m1 0h1m1 0h1m3 0h2m3 0h1m1 0h2m2 0h2m3 0h1m1 0h1m1 0h1m3 0h2m3 0h1m1 0h1m1 0h3m2 0h1m2 0h4m-119 1h2m2 0h2m1 0h1m4 0h1m2 0h8m1 0h1m2 0h1m3 0h4m2 0h2m2 0h1m1 0h1m4 0h1m3 0h1m2 0h1m1 0h1m1 0h2m1 0h1m1 0h1m2 0h1m4 0h1m3 0h1m2 0h4m1 0h2m2 0h1m2 0h1m4 0h1m3 0h1m1 0h5m2 0h1m2 0h1m2 0h1m1 0h1m1 0h1m-124 1h2m2 0h1m1 0h2m1 0h6m1 0h4m1 0h1m1 0h1m3 0h1m1 0h1m2 0h1m1 0h2m3 0h3m2 0h1m1 0h1m1 0h1m1 0h1m2 0h3m4 0h3m2 0h1m4 0h1m1 0h1m1 0h1m2 0h3m2 0h1m3 0h2m1 0h2m3 0h1m1 0h1m1 0h1m2 0h3m3 0h1m3 0h3m1 0h1m2 0h1m1 0h4m-125 1h2m1 0h6m1 0h1m1 0h4m1 0h4m3 0h1m2 0h3m2 0h5m2 0h3m1 0h1m2 0h1m6 0h1m2 0h2m1 0h7m1 0h1m2 0h1m6 0h1m2 0h2m3 0h2m1 0h6m3 0h2m3 0h1m1 0h2m1 0h6m1 0h1m1 0h5m3 0h1m-125 1h2m2 0h1m3 0h4m1 0h6m1 0h1m4 0h1m2 0h1m2 0h2m3 0h2m2 0h1m4 0h3m1 0h1m1 0h1m3 0h2m3 0h1m3 0h1m4 0h3m1 0h1m1 0h1m3 0h2m2 0h1m2 0h3m3 0h1m2 0h1m2 0h2m1 0h4m3 0h1m1 0h1m1 0h3m1 0h1m3 0h4m-122 1h1m1 0h1m1 0h1m1 0h3m6 0h1m1 0h1m2 0h3m2 0h1m1 0h1m2 0h1m1 0h1m1 0h1m2 0h1m1 0h1m1 0h1m2 0h1m1 0h1m2 0h1m1 0h1m1 0h1m1 0h1m1 0h2m1 0h1m1 0h2m1 0h1m2 0h1m1 0h1m4 0h1m3 0h1m1 0h4m1 0h1m1 0h1m1 0h2m2 0h3m3 0h1m2 0h1m1 0h4m3 0h1m1 0h1m1 0h1m1 0h1m1 0h1m1 0h1m-125 1h1m2 0h2m3 0h1m1 0h1m1 0h4m1 0h2m5 0h2m2 0h1m1 0h1m1 0h1m3 0h2m2 0h1m1 0h1m2 0h1m1 0h1m1 0h1m2 0h1m1 0h1m4 0h2m3 0h1m1 0h1m2 0h1m1 0h1m1 0h1m1 0h1m2 0h3m3 0h1m3 0h1m3 0h1m2 0h1m3 0h1m1 0h4m3 0h1m2 0h1m1 0h4m3 0h5m-125 1h1m3 0h5m1 0h1m1 0h4m1 0h2m5 0h6m2 0h5m2 0h2m1 0h2m2 0h1m4 0h3m1 0h1m1 0h1m1 0h7m1 0h1m1 0h1m3 0h2m2 0h1m2 0h2m1 0h4m1 0h6m3 0h2m2 0h1m2 0h2m1 0h4m3 0h1m1 0h5m3 0h1m-125 1h1m3 0h2m2 0h14m4 0h1m1 0h1m2 0h1m4 0h2m2 0h3m2 0h3m1 0h1m2 0h1m7 0h1m3 0h1m6 0h1m2 0h2m3 0h2m3 0h1m1 0h1m2 0h2m4 0h1m2 0h2m3 0h2m3 0h1m1 0h2m1 0h2m2 0h1m3 0h3m-118 1h2m1 0h4m4 0h1m1 0h1m2 0h6m1 0h1m3 0h1m1 0h2m2 0h1m2 0h2m2 0h1m1 0h1m4 0h1m1 0h1m1 0h1m1 0h1m1 0h5m1 0h1m1 0h1m2 0h3m2 0h1m1 0h1m1 0h1m2 0h4m2 0h2m1 0h1m2 0h3m2 0h1m3 0h1m1 0h5m2 0h2m3 0h1m2 0h1m1 0h1m-125 1h1m2 0h3m1 0h1m2 0h1m1 0h4m1 0h2m2 0h2m1 0h1m3 0h1m1 0h2m4 0h2m2 0h3m2 0h1m1 0h1m1 0h1m1 0h1m2 0h1m7 0h1m1 0h1m1 0h1m4 0h1m3 0h1m2 0h1m4 0h1m5 0h2m4 0h1m3 0h1m2 0h3m3 0h1m3 0h3m3 0h7m-121 1h1m1 0h1m1 0h2m2 0h4m1 0h2m5 0h6m3 0h1m1 0h2m2 0h3m1 0h1m1 0h1m7 0h1m1 0h1m1 0h1m1 0h1m1 0h3m1 0h1m1 0h1m1 0h1m7 0h1m1 0h1m1 0h1m3 0h3m2 0h2m1 0h1m3 0h2m3 0h1m1 0h1m1 0h7m1 0h1m2 0h2m1 0h1m3 0h1m-125 1h1m1 0h1m1 0h2m3 0h1m2 0h10m3 0h2m1 0h1m2 0h1m4 0h2m2 0h1m6 0h1m1 0h1m1 0h1m8 0h1m3 0h1m6 0h1m1 0h1m1 0h1m7 0h1m2 0h1m2 0h2m4 0h1m2 0h2m1 0h6m1 0h1m1 0h1m1 0h5m1 0h6m-123 1h1m2 0h3m1 0h1m8 0h1m1 0h1m2 0h4m1 0h1m1 0h1m3 0h1m1 0h2m2 0h1m1 0h1m1 0h1m1 0h1m1 0h2m2 0h1m1 0h1m1 0h1m1 0h1m1 0h1m1 0h5m1 0h1m1 0h1m2 0h1m4 0h1m3 0h1m2 0h4m2 0h2m1 0h1m2 0h3m3 0h1m3 0h1m1 0h3m3 0h1m1 0h2m2 0h1m1 0h1m1 0h1m-125 1h1m2 0h1m1 0h1m3 0h1m2 0h3m1 0h3m2 0h2m1 0h2m2 0h1m1 0h2m4 0h2m2 0h1m1 0h1m5 0h2m2 0h1m1 0h1m7 0h1m1 0h1m1 0h1m4 0h1m1 0h1m1 0h1m2 0h3m2 0h1m5 0h2m4 0h1m3 0h1m1 0h5m1 0h1m3 0h1m1 0h5m2 0h5m-120 1h4m3 0h3m2 0h2m5 0h1m1 0h4m3 0h1m1 0h2m2 0h3m1 0h1m2 0h3m2 0h3m1 0h1m1 0h1m1 0h1m1 0h3m1 0h1m1 0h1m1 0h1m3 0h2m3 0h1m1 0h2m3 0h3m2 0h2m1 0h1m3 0h2m3 0h1m1 0h2m3 0h2m3 0h2m3 0h1m4 0h1m-125 1h1m1 0h1m1 0h2m1 0h1m2 0h6m1 0h5m6 0h1m2 0h1m4 0h2m2 0h1m4 0h2m1 0h2m2 0h1m7 0h1m3 0h1m6 0h1m2 0h2m1 0h4m2 0h1m2 0h1m2 0h2m4 0h1m2 0h2m1 0h4m2 0h1m2 0h2m1 0h2m2 0h1m5 0h1m-123 1h1m4 0h3m1 0h3m4 0h1m1 0h1m2 0h6m1 0h1m3 0h1m1 0h2m2 0h1m1 0h1m1 0h1m2 0h1m1 0h1m2 0h1m1 0h1m1 0h1m1 0h1m1 0h1m1 0h5m1 0h1m1 0h1m2 0h4m2 0h2m1 0h1m2 0h4m1 0h1m1 0h1m1 0h1m2 0h3m3 0h1m2 0h1m1 0h4m3 0h2m3 0h1m1 0h1m1 0h1m-124 1h1m2 0h3m6 0h3m1 0h3m2 0h2m1 0h1m1 0h1m1 0h1m1 0h2m4 0h2m2 0h1m1 0h1m2 0h1m1 0h1m1 0h1m2 0h1m1 0h1m7 0h1m1 0h1m1 0h1m4 0h1m4 0h3m4 0h1m11 0h1m3 0h1m1 0h4m3 0h1m2 0h1m1 0h2m2 0h1m2 0h1m2 0h1m-120 1h1m1 0h2m1 0h1m2 0h3m2 0h2m5 0h1m1 0h4m3 0h1m1 0h2m2 0h3m1 0h1m1 0h1m3 0h5m1 0h1m1 0h1m1 0h1m1 0h3m1 0h1m1 0h1m1 0h1m3 0h5m1 0h1m1 0h1m3 0h3m1 0h1m1 0h1m1 0h1m3 0h2m3 0h1m1 0h1m1 0h3m5 0h1m2 0h1m1 0h1m1 0h1m1 0h1m-124 1h1m1 0h1m2 0h1m1 0h1m1 0h1m2 0h4m1 0h5m6 0h1m2 0h1m4 0h2m2 0h1m6 0h1m2 0h1m1 0h1m7 0h1m3 0h1m6 0h1m2 0h1m1 0h1m6 0h1m2 0h1m3 0h1m4 0h1m2 0h2m1 0h6m1 0h2m1 0h1m1 0h5m3 0h3m-123 1h1m3 0h4m3 0h1m4 0h1m1 0h1m2 0h6m1 0h1m3 0h1m1 0h2m2 0h1m1 0h1m3 0h1m1 0h5m1 0h1m1 0h1m1 0h1m1 0h1m3 0h3m1 0h1m1 0h1m2 0h3m2 0h1m1 0h1m1 0h1m2 0h4m2 0h2m1 0h1m2 0h3m3 0h2m2 0h1m1 0h1m5 0h1m1 0h1m1 0h2m2 0h1m1 0h1m-125 1h1m2 0h1m1 0h1m3 0h1m1 0h3m2 0h3m2 0h2m1 0h1m1 0h1m1 0h1m1 0h2m4 0h2m2 0h1m1 0h3m3 0h1m3 0h1m1 0h1m6 0h1m2 0h1m1 0h1m4 0h1m3 0h1m2 0h1m4 0h1m5 0h2m4 0h1m3 0h1m1 0h2m2 0h1m1 0h1m1 0h1m1 0h1m1 0h5m2 0h5m-119 1h2m5 0h2m2 0h2m5 0h1m1 0h4m3 0h1m1 0h2m2 0h3m2 0h2m1 0h2m2 0h3m1 0h1m1 0h1m1 0h1m3 0h1m1 0h1m1 0h1m1 0h1m3 0h2m3 0h2m2 0h1m2 0h3m2 0h2m1 0h1m3 0h2m3 0h2m2 0h1m2 0h2m3 0h1m4 0h1m4 0h1m-125 1h1m1 0h1m1 0h1m2 0h1m2 0h1m1 0h1m2 0h1m1 0h5m6 0h1m2 0h1m4 0h2m2 0h1m2 0h2m3 0h2m2 0h1m7 0h2m2 0h1m6 0h1m2 0h2m1 0h2m2 0h3m2 0h1m2 0h2m4 0h1m2 0h2m1 0h2m2 0h3m2 0h2m1 0h5m-117 1h1m4 0h3m1 0h1m1 0h2m3 0h1m1 0h1m2 0h6m1 0h1m4 0h3m2 0h1m1 0h1m1 0h1m1 0h1m1 0h2m2 0h1m1 0h1m1 0h1m1 0h1m1 0h1m1 0h5m1 0h1m1 0h1m1 0h5m2 0h2m2 0h1m1 0h4m1 0h1m1 0h1m1 0h1m2 0h3m3 0h1m3 0h1m1 0h3m3 0h1m1 0h1m2 0h1m1 0h1m1 0h1m-124 1h1m2 0h3m5 0h4m1 0h3m2 0h2m1 0h1m1 0h1m1 0h1m1 0h2m1 0h2m1 0h2m2 0h1m1 0h1m5 0h2m2 0h1m1 0h1m7 0h1m1 0h1m1 0h1m5 0h1m3 0h3m2 0h1m1 0h1m11 0h1m3 0h1m1 0h5m1 0h1m3 0h1m1 0h5m2 0h1m-117 1h4m1 0h1m3 0h2m2 0h2m7 0h4m4 0h1m1 0h1m2 0h3m1 0h1m1 0h1m1 0h6m1 0h2m1 0h1m1 0h1m1 0h3m1 0h1m1 0h1m1 0h1m1 0h6m1 0h2m1 0h1m3 0h3m1 0h1m1 0h1m1 0h1m3 0h2m3 0h1m1 0h1m1 0h1m6 0h1m5 0h1m1 0h1m1 0h1m-124 1h1m1 0h1m1 0h1m2 0h1m1 0h1m2 0h4m3 0h3m1 0h1m4 0h1m2 0h1m1 0h1m1 0h1m1 0h1m2 0h1m7 0h1m1 0h1m1 0h3m5 0h1m3 0h1m7 0h1m1 0h1m1 0h3m4 0h1m2 0h1m3 0h1m4 0h1m2 0h2m1 0h7m1 0h1m1 0h1m3 0h3m5 0h1m-123 1h1m4 0h5m1 0h1m6 0h1m2 0h1m2 0h3m1 0h1m3 0h1m7 0h1m3 0h1m1 0h5m2 0h2m1 0h1m1 0h1m3 0h3m1 0h1m1 0h1m2 0h4m2 0h2m1 0h1m2 0h4m1 0h1m1 0h1m1 0h1m2 0h4m2 0h2m2 0h1m1 0h1m4 0h1m2 0h1m2 0h1m1 0h2m1 0h1m-125 1h1m2 0h3m3 0h5m2 0h2m3 0h2m3 0h1m1 0h1m1 0h2m3 0h1m1 0h1m1 0h1m2 0h3m3 0h1m3 0h3m6 0h1m2 0h1m1 0h1m4 0h1m4 0h3m4 0h1m11 0h1m4 0h3m2 0h1m1 0h1m1 0h1m1 0h1m2 0h4m2 0h1m2 0h2m-121 1h6m3 0h2m2 0h2m5 0h1m1 0h4m2 0h5m4 0h1m2 0h2m1 0h7m1 0h1m1 0h1m1 0h7m1 0h1m1 0h1m3 0h4m1 0h2m2 0h1m4 0h7m3 0h4m1 0h2m2 0h1m7 0h1m1 0h7m1 0h1m-125 1h1m1 0h1m1 0h1m3 0h3m1 0h1m2 0h1m3 0h3m1 0h2m3 0h1m3 0h1m3 0h2m1 0h1m3 0h2m3 0h1m1 0h1m1 0h1m6 0h2m3 0h1m6 0h1m2 0h1m1 0h3m2 0h3m1 0h1m1 0h2m3 0h1m2 0h1m2 0h1m1 0h3m2 0h3m1 0h1m1 0h1m1 0h2m1 0h1m3 0h1m-120 1h1m2 0h1m1 0h1m1 0h2m2 0h2m3 0h3m2 0h2m1 0h3m1 0h1m1 0h2m1 0h1m1 0h1m2 0h1m1 0h1m3 0h1m1 0h5m1 0h1m1 0h1m1 0h1m2 0h1m1 0h1m1 0h2m3 0h1m1 0h5m2 0h2m2 0h1m1 0h1m3 0h1m1 0h1m1 0h2m2 0h3m3 0h2m2 0h1m1 0h1m5 0h3m1 0h1m1 0h2m1 0h1m-124 1h1m2 0h2m3 0h7m1 0h3m2 0h4m1 0h1m1 0h1m1 0h1m1 0h1m3 0h2m2 0h1m1 0h3m3 0h1m3 0h1m1 0h1m5 0h1m3 0h1m1 0h3m3 0h1m3 0h3m2 0h1m1 0h1m1 0h1m1 0h2m3 0h1m2 0h1m3 0h1m1 0h2m2 0h1m1 0h1m1 0h1m1 0h1m1 0h4m3 0h1m-117 1h6m3 0h2m2 0h3m1 0h1m1 0h2m1 0h4m2 0h5m2 0h3m2 0h2m1 0h6m1 0h2m2 0h8m2 0h2m1 0h6m1 0h2m2 0h1m2 0h8m1 0h1m2 0h2m3 0h2m2 0h1m6 0h1m2 0h6m1 0h1m-124 1h1m1 0h1m1 0h2m1 0h1m1 0h2m1 0h1m1 0h2m3 0h2m1 0h2m4 0h1m3 0h2m1 0h3m2 0h1m2 0h2m3 0h1m1 0h1m1 0h3m2 0h4m6 0h2m3 0h1m1 0h1m1 0h3m2 0h3m2 0h4m1 0h1m1 0h3m2 0h2m1 0h2m2 0h3m1 0h1m1 0h1m3 0h2m2 0h1m-119 1h2m1 0h1m1 0h2m1 0h1m2 0h2m7 0h1m3 0h3m1 0h1m6 0h1m4 0h1m3 0h1m1 0h5m2 0h2m2 0h2m1 0h1m1 0h1m1 0h1m1 0h1m1 0h1m1 0h5m2 0h2m2 0h1m1 0h4m2 0h1m3 0h6m2 0h2m2 0h1m1 0h1m4 0h1m1 0h1m1 0h1m3 0h1m1 0h1m-124 1h1m1 0h1m4 0h7m2 0h2m1 0h4m3 0h1m1 0h1m1 0h1m1 0h1m1 0h4m1 0h1m2 0h3m3 0h1m3 0h3m2 0h1m1 0h2m5 0h1m5 0h1m3 0h3m2 0h1m1 0h1m3 0h3m1 0h1m1 0h1m2 0h1m3 0h3m2 0h1m1 0h1m1 0h1m1 0h1m2 0h1m1 0h1m2 0h1m-117 1h4m2 0h1m3 0h1m3 0h3m2 0h1m1 0h1m1 0h3m1 0h1m2 0h2m1 0h1m4 0h1m2 0h2m1 0h6m1 0h2m1 0h1m3 0h1m1 0h1m2 0h2m1 0h1m1 0h6m1 0h2m2 0h1m4 0h1m5 0h1m1 0h6m1 0h2m2 0h1m6 0h1m1 0h1m1 0h1m2 0h2m1 0h1m-124 1h1m2 0h3m1 0h1m1 0h2m1 0h1m2 0h1m3 0h1m1 0h4m3 0h3m1 0h1m1 0h1m1 0h2m1 0h1m3 0h2m3 0h1m1 0h1m1 0h3m4 0h2m2 0h1m1 0h2m5 0h1m1 0h1m1 0h3m2 0h3m1 0h1m1 0h3m6 0h1m1 0h1m1 0h3m2 0h3m1 0h1m1 0h1m3 0h2m2 0h1m-120 1h3m1 0h1m1 0h2m1 0h1m2 0h1m3 0h4m3 0h1m1 0h2m3 0h1m2 0h1m1 0h1m5 0h1m3 0h1m1 0h5m2 0h2m1 0h1m1 0h1m1 0h1m2 0h1m1 0h1m2 0h1m1 0h5m2 0h2m2 0h1m1 0h1m2 0h1m2 0h4m2 0h4m2 0h2m2 0h1m1 0h1m4 0h1m1 0h1m1 0h1m3 0h1m1 0h1m-124 1h1m2 0h1m3 0h6m1 0h1m2 0h3m3 0h2m1 0h2m1 0h2m3 0h1m2 0h1m1 0h1m2 0h3m3 0h1m3 0h3m4 0h2m2 0h6m3 0h1m3 0h3m2 0h1m1 0h1m1 0h1m1 0h3m2 0h1m2 0h1m4 0h3m2 0h1m1 0h1m1 0h1m1 0h1m2 0h1m1 0h1m2 0h1m-120 1h2m1 0h4m2 0h1m3 0h1m1 0h1m4 0h2m1 0h3m3 0h1m2 0h4m1 0h2m2 0h1m2 0h2m1 0h6m1 0h2m2 0h1m2 0h1m2 0h2m2 0h2m1 0h6m1 0h2m2 0h1m4 0h1m3 0h2m1 0h1m4 0h2m1 0h2m2 0h1m6 0h1m1 0h1m1 0h1m2 0h2m1 0h1m-123 1h2m1 0h2m1 0h1m1 0h2m1 0h1m2 0h3m1 0h2m1 0h2m1 0h3m3 0h1m2 0h1m1 0h1m1 0h2m3 0h2m3 0h1m1 0h1m1 0h3m2 0h4m6 0h2m3 0h1m1 0h1m1 0h3m2 0h3m1 0h1m1 0h3m1 0h1m1 0h3m1 0h1m2 0h3m2 0h3m1 0h1m1 0h1m3 0h2m2 0h1m-116 1h1m1 0h2m1 0h1m2 0h1m3 0h2m3 0h1m2 0h2m1 0h1m1 0h1m1 0h3m1 0h1m1 0h2m2 0h1m3 0h1m1 0h5m2 0h1m3 0h2m1 0h1m1 0h1m1 0h1m3 0h1m1 0h5m2 0h2m2 0h1m1 0h1m2 0h1m2 0h1m3 0h3m2 0h1m2 0h2m2 0h1m1 0h1m4 0h1m1 0h1m1 0h1m3 0h1m1 0h1m-124 1h1m2 0h1m3 0h6m1 0h1m2 0h1m1 0h4m2 0h2m1 0h1m1 0h3m1 0h1m4 0h1m2 0h3m3 0h1m3 0h6m1 0h1m6 0h3m3 0h1m3 0h3m2 0h1m1 0h1m1 0h1m1 0h3m1 0h1m1 0h1m2 0h2m2 0h3m2 0h1m1 0h1m1 0h1m1 0h1m2 0h1m1 0h1m2 0h1m-116 1h3m2 0h1m3 0h1m2 0h1m2 0h1m2 0h1m1 0h2m1 0h2m1 0h1m2 0h3m5 0h1m2 0h2m1 0h6m1 0h1m1 0h1m1 0h1m1 0h2m1 0h1m2 0h1m1 0h1m1 0h7m1 0h2m2 0h1m4 0h1m6 0h7m1 0h2m2 0h1m6 0h1m1 0h1m1 0h1m2 0h2m1 0h1m-124 1h1m1 0h4m1 0h1m1 0h2m1 0h1m2 0h1m2 0h2m1 0h2m1 0h3m1 0h3m1 0h1m1 0h1m1 0h2m1 0h1m3 0h2m3 0h1m1 0h1m1 0h7m6 0h6m1 0h1m1 0h1m1 0h3m2 0h3m1 0h1m1 0h3m3 0h2m1 0h1m1 0h1m1 0h3m2 0h3m1 0h1m1 0h1m3 0h2m2 0h1m-120 1h3m1 0h1m1 0h1m1 0h2m2 0h1m4 0h1m1 0h1m4 0h2m4 0h1m2 0h1m1 0h1m5 0h1m3 0h1m1 0h5m2 0h2m2 0h1m1 0h2m1 0h1m2 0h1m3 0h6m2 0h2m2 0h3m2 0h1m2 0h3m1 0h6m2 0h2m2 0h1m1 0h1m4 0h1m1 0h1m1 0h1m3 0h1m1 0h1m-124 1h1m2 0h1m3 0h4m3 0h1m2 0h1m1 0h1m5 0h1m1 0h1m1 0h2m3 0h1m2 0h1m1 0h1m2 0h3m3 0h1m3 0h3m2 0h1m2 0h1m4 0h5m2 0h1m3 0h3m2 0h1m2 0h2m1 0h1m1 0h1m2 0h2m2 0h1m3 0h3m2 0h1m1 0h1m1 0h1m1 0h1m2 0h1m1 0h1m2 0h1m-120 1h2m1 0h4m1 0h2m2 0h2m1 0h2m3 0h2m2 0h2m4 0h1m1 0h4m1 0h2m3 0h1m1 0h2m1 0h6m1 0h2m2 0h1m2 0h1m1 0h1m2 0h1m1 0h2m1 0h6m1 0h2m2 0h3m2 0h2m2 0h2m1 0h3m2 0h3m1 0h1m2 0h1m6 0h1m1 0h1m1 0h1m1 0h1m1 0h1m1 0h1m-123 1h2m1 0h2m1 0h1m1 0h4m2 0h2m1 0h3m3 0h4m1 0h3m2 0h1m1 0h1m1 0h2m1 0h4m3 0h1m1 0h1m1 0h3m2 0h4m4 0h4m3 0h1m1 0h1m1 0h3m2 0h2m1 0h2m3 0h1m3 0h2m1 0h2m2 0h1m4 0h3m1 0h1m1 0h1m3 0h2m3 0h1m-117 1h1m1 0h1m1 0h2m6 0h2m2 0h1m3 0h2m4 0h4m1 0h1m1 0h2m3 0h1m2 0h1m1 0h4m3 0h1m3 0h2m1 0h1m1 0h1m2 0h1m2 0h1m1 0h5m2 0h2m2 0h1m1 0h1m3 0h1m1 0h3m1 0h3m2 0h1m1 0h1m1 0h1m2 0h1m1 0h1m2 0h1m1 0h1m1 0h3m2 0h2m1 0h1m-124 1h1m2 0h1m3 0h4m1 0h1m1 0h1m2 0h1m1 0h3m3 0h3m1 0h3m2 0h1m4 0h1m1 0h4m3 0h1m2 0h1m1 0h5m1 0h1m5 0h4m3 0h1m3 0h3m2 0h1m1 0h1m1 0h1m2 0h2m2 0h2m2 0h2m2 0h1m1 0h1m2 0h1m1 0h1m1 0h1m2 0h1m1 0h2m-116 1h1m3 0h4m1 0h1m1 0h3m2 0h1m4 0h1m2 0h2m4 0h1m1 0h4m1 0h2m2 0h1m2 0h2m1 0h4m3 0h1m1 0h1m1 0h1m1 0h2m1 0h1m2 0h1m1 0h1m1 0h3m2 0h2m1 0h2m2 0h1m4 0h1m3 0h2m1 0h3m2 0h2m1 0h2m2 0h1m4 0h3m3 0h1m2 0h2m1 0h1m-124 1h1m1 0h4m2 0h3m4 0h1m2 0h1m2 0h1m2 0h4m1 0h3m2 0h1m1 0h1m1 0h2m3 0h2m3 0h1m1 0h2m1 0h6m6 0h6m1 0h2m2 0h3m2 0h3m1 0h1m1 0h3m3 0h2m1 0h2m2 0h3m2 0h3m1 0h1m2 0h1m6 0h1m-119 1h1m2 0h3m1 0h2m7 0h1m2 0h1m1 0h1m1 0h2m4 0h4m1 0h1m1 0h2m2 0h1m3 0h1m1 0h5m2 0h1m3 0h1m1 0h2m1 0h1m2 0h1m3 0h3m2 0h1m2 0h1m3 0h3m2 0h1m2 0h3m1 0h3m2 0h1m2 0h2m2 0h1m1 0h1m4 0h1m3 0h1m3 0h1m1 0h1m-124 1h1m1 0h1m1 0h2m1 0h4m3 0h1m2 0h1m1 0h4m2 0h1m1 0h1m1 0h3m2 0h1m4 0h1m2 0h3m3 0h1m3 0h6m7 0h5m2 0h2m2 0h6m2 0h2m1 0h1m1 0h1m2 0h2m2 0h2m2 0h3m2 0h1m1 0h1m1 0h1m1 0h1m2 0h1m1 0h1m2 0h1m-120 1h1m5 0h1m1 0h6m1 0h2m4 0h1m2 0h3m3 0h1m1 0h7m3 0h1m1 0h1m1 0h7m1 0h1m1 0h1m1 0h1m1 0h5m1 0h1m1 0h1m1 0h7m1 0h1m1 0h1m1 0h3m2 0h6m1 0h3m2 0h3m1 0h1m1 0h1m7 0h1m1 0h7m1 0h1m-116 1h4m3 0h2m1 0h1m2 0h1m2 0h1m2 0h1m1 0h4m3 0h1m1 0h2m1 0h6m1 0h1m1 0h1m1 0h7m1 0h1m3 0h7m1 0h1m1 0h1m1 0h7m1 0h2m2 0h1m3 0h3m1 0h2m2 0h1m6 0h1m1 0h1m1 0h1m4 0h1m3 0h1m-121 1h7m1 0h1m1 0h1m5 0h2m2 0h1m1 0h1m1 0h1m1 0h1m3 0h3m1 0h1m1 0h3m3 0h1m3 0h1m1 0h3m3 0h1m3 0h1m1 0h1m1 0h1m1 0h1m1 0h1m3 0h6m2 0h2m2 0h3m3 0h1m1 0h1m1 0h1m1 0h3m2 0h1m1 0h1m1 0h1m1 0h1m1 0h2m2 0h1m1 0h1m1 0h2m1 0h1m1 0h2m1 0h1m-124 1h1m5 0h1m2 0h2m1 0h1m1 0h1m1 0h2m1 0h4m3 0h2m1 0h2m1 0h1m3 0h1m2 0h1m1 0h5m1 0h1m3 0h1m1 0h5m1 0h2m3 0h6m2 0h1m3 0h3m2 0h1m2 0h2m1 0h2m3 0h2m2 0h2m2 0h1m1 0h1m5 0h2m2 0h1m1 0h3m3 0h1m-121 1h1m1 0h3m1 0h1m1 0h6m1 0h1m5 0h1m2 0h1m5 0h9m3 0h1m1 0h2m3 0h2m3 0h1m1 0h1m1 0h1m1 0h5m1 0h1m1 0h1m1 0h3m2 0h3m1 0h1m2 0h3m3 0h5m1 0h3m2 0h3m1 0h1m2 0h3m2 0h3m1 0h7m1 0h1m-124 1h1m1 0h3m1 0h1m1 0h1m6 0h2m1 0h1m2 0h1m2 0h1m2 0h1m1 0h7m2 0h2m1 0h4m2 0h1m2 0h2m1 0h6m1 0h2m1 0h1m1 0h6m1 0h2m2 0h1m4 0h2m1 0h2m2 0h1m2 0h4m1 0h2m2 0h1m4 0h2m1 0h2m2 0h1m2 0h1m2 0h6m-124 1h1m1 0h3m1 0h1m1 0h1m1 0h1m5 0h2m2 0h1m1 0h1m1 0h1m1 0h1m3 0h1m3 0h1m1 0h3m3 0h1m2 0h1m1 0h4m3 0h1m3 0h3m5 0h1m3 0h3m4 0h1m4 0h3m2 0h1m1 0h1m4 0h3m2 0h1m1 0h1m1 0h1m2 0h1m1 0h1m2 0h1m1 0h1m3 0h2m1 0h1m1 0h2m-124 1h1m5 0h1m1 0h3m3 0h1m1 0h2m1 0h4m4 0h1m1 0h5m1 0h1m3 0h1m1 0h4m3 0h1m2 0h1m1 0h5m2 0h2m1 0h1m1 0h5m2 0h2m1 0h1m2 0h4m2 0h2m2 0h1m1 0h4m2 0h2m2 0h1m1 0h1m2 0h1m1 0h1m1 0h1m2 0h1m1 0h2m2 0h6m-124 1h7m1 0h8m5 0h1m2 0h1m5 0h1m1 0h1m1 0h1m2 0h2m3 0h1m1 0h1m1 0h3m5 0h1m1 0h1m1 0h3m5 0h1m1 0h1m1 0h3m5 0h1m1 0h1m1 0h3m2 0h3m2 0h1m1 0h3m2 0h3m1 0h1m1 0h1m3 0h5m3 0h1m2 0h1"/></svg>
